<?xml version="1.0" standalone="no"?><!DOCTYPE svg PUBLIC "-//W3C//DTD SVG 1.1//EN" "http://www.w3.org/Graphics/SVG/1.1/DTD/svg11.dtd"><svg t="1620895374947" class="icon" viewBox="0 0 1024 1024" version="1.1" xmlns="http://www.w3.org/2000/svg" p-id="2778" xmlns:xlink="http://www.w3.org/1999/xlink" width="32" height="32"><defs><style type="text/css"></style></defs><path d="M910.222222 512c0-219.022222-179.2-398.222222-398.222222-398.222222S113.777778 292.977778 113.777778 512c0 202.467556 152.689778 371.712 348.444444 394.865778 9.955556 3.356444 23.267556 3.356444 39.822222 3.356444h13.312C734.378667 906.865778 910.222222 731.022222 910.222222 512z m-56.376889 6.599111c0-19.911111-3.356444-39.822222-6.712889-59.733333v-19.911111c3.356444 23.267556 6.712889 46.535111 6.712889 73.045333v6.599111zM170.097778 512c0-23.267556 3.356444-46.421333 6.712889-69.688889 13.198222 16.554667 49.777778 16.554667 56.376889-6.599111 16.554667 9.955556 36.465778 9.955556 36.465777 29.866667 0 59.733333 3.356444 122.709333 56.490667 122.709333 0 0 23.153778 9.955556 36.465778 46.535111 3.356444 13.198222 36.465778 0 36.465778 0 36.579556 0 0 16.554667 0 56.376889 0 36.465778 86.357333 92.956444 86.357333 92.956444 0 23.153778 3.242667 43.064889 6.599111 59.733334-16.554667 0-33.223111 3.242667-43.178667 6.599111A342.584889 342.584889 0 0 1 170.154667 512z m424.846222 331.889778c0-9.955556-9.955556-13.312-23.267556-9.955556 9.955556-46.535111 16.554667-76.401778 39.822223-96.312889 33.223111-29.866667 3.356444-62.976-23.267556-59.733333-19.911111 3.356444-6.599111-26.510222-26.510222-26.510222-19.911111 0-43.178667-36.465778-66.332445-49.777778-13.312-6.599111-26.624-23.267556-49.777777-26.510222-19.911111 0-46.535111 16.554667-46.535111 3.242666 0-43.064889-3.242667-69.688889-6.599112-82.887111 0-9.955556-6.599111-3.356444 19.911112-3.356444 13.312 0 6.599111-26.510222 19.911111-29.866667 13.312 0 46.421333 13.312 53.134222 6.599111 6.599111-6.599111 56.376889 129.422222 56.376889 23.267556 0-13.312-6.599111-33.223111 0-46.421333 26.510222-46.535111 49.777778-86.357333 46.421333-89.6 0-3.356444-26.510222-6.712889-46.421333 0-6.599111 3.242667 3.356444 13.198222-6.599111 16.554666-36.579556 9.955556-69.688889-9.955556-56.490667-26.510222 13.312-16.668444 53.134222-6.712889 56.490667-43.178667 6.599111-19.911111 9.955556-43.178667 9.955555-59.733333 49.777778 6.599111 43.064889-63.089778-29.866666-69.688889 145.976889 0 272.042667 96.199111 318.577777 228.977778-3.356444-3.356444-6.712889-3.356444-6.712889-3.356445-23.153778-56.376889-76.288-16.554667-56.376888 33.223112-96.199111 76.288-73.045333 126.065778-39.822223 155.932444 16.554667 16.668444 33.223111 39.822222 43.178667 56.490667-13.312 33.109333 43.064889 19.911111 66.332444-36.579556a345.201778 345.201778 0 0 1-245.532444 235.690667z" p-id="2779"></path></svg>